<?xml version="1.0" standalone="no"?><!DOCTYPE svg PUBLIC "-//W3C//DTD SVG 1.1//EN" "http://www.w3.org/Graphics/SVG/1.1/DTD/svg11.dtd"><svg t="1628147636278" class="icon" viewBox="0 0 1024 1024" version="1.1" xmlns="http://www.w3.org/2000/svg" p-id="3274" xmlns:xlink="http://www.w3.org/1999/xlink" width="128" height="128"><defs><style type="text/css"></style></defs><path d="M923.744 853.344a32 32 0 0 1 32 32v4.256a32 32 0 0 1-32 32H100.256a32 32 0 0 1-32-32v-4.256a32 32 0 0 1 32-32h823.488z m-614.4-477.888a32 32 0 0 1 32 32V787.2a32 32 0 0 1-32 32h-140.8a32 32 0 0 1-32-32V407.456a32 32 0 0 1 32-32h140.8z m546.112 102.4a32 32 0 0 1 32 32V787.2a32 32 0 0 1-32 32h-140.8a32 32 0 0 1-32-32V509.856a32 32 0 0 1 32-32h140.8zM582.4 170.656a32 32 0 0 1 32 32V787.2a32 32 0 0 1-32 32H441.6a32 32 0 0 1-32-32V202.656a32 32 0 0 1 32-32h140.8z m-305.088 268.8h-76.8V755.2h76.8V439.456z m546.144 102.4h-76.8V755.2h76.8V541.856zM550.4 234.656h-76.8V755.2h76.8V234.656z" fill="#ffffff" p-id="3275"></path></svg>