<?xml version="1.0" standalone="no"?><!DOCTYPE svg PUBLIC "-//W3C//DTD SVG 1.1//EN" "http://www.w3.org/Graphics/SVG/1.1/DTD/svg11.dtd"><svg t="1628147776447" class="icon" viewBox="0 0 1024 1024" version="1.1" xmlns="http://www.w3.org/2000/svg" p-id="932" xmlns:xlink="http://www.w3.org/1999/xlink" width="128" height="128"><defs><style type="text/css"></style></defs><path d="M1010.347 414.476a87.284 87.284 0 0 0-83.87-79.482h-2.439a79.238 79.238 0 0 1-78.994-79.238 89.966 89.966 0 0 1 8.29-29.257 99.23 99.23 0 0 0-34.134-119.71L697.295 39.253l-4.876-2.194a95.817 95.817 0 0 0-38.766-7.802 103.863 103.863 0 0 0-74.605 30.476 139.215 139.215 0 0 1-65.098 40.229 139.947 139.947 0 0 1-65.34-40.96A104.594 104.594 0 0 0 334.75 34.62l-125.805 69.73-4.876 3.169a97.524 97.524 0 0 0-33.402 118.735A97.524 97.524 0 0 1 177.98 256a79.97 79.97 0 0 1-82.164 79.238h-1.95a86.796 86.796 0 0 0-81.189 79.238 598.065 598.065 0 0 0-10.484 98.987 623.177 623.177 0 0 0 10.484 99.962 87.04 87.04 0 0 0 81.432 78.263h4.877a79.238 79.238 0 0 1 78.994 78.75 88.747 88.747 0 0 1-7.314 29.501 99.23 99.23 0 0 0 33.645 119.223l118.736 66.804 4.876 2.438a95.086 95.086 0 0 0 38.766 8.046 103.619 103.619 0 0 0 75.824-32.183A144.579 144.579 0 0 1 508.83 921.6a138.971 138.971 0 0 1 66.804 43.642 101.912 101.912 0 0 0 75.581 32.914 95.573 95.573 0 0 0 39.01-8.046l123.611-68.022 4.876-3.17a97.524 97.524 0 0 0 33.158-118.735 97.524 97.524 0 0 1-7.07-29.501 80.213 80.213 0 0 1 81.676-79.238 88.747 88.747 0 0 0 83.14-78.994 633.905 633.905 0 0 0 10.24-98.987 630.248 630.248 0 0 0-9.51-98.987zM938.91 600.26c-1.706 9.265-6.582 19.505-12.678 19.505A151.406 151.406 0 0 0 772.39 771.657a163.596 163.596 0 0 0 12.678 57.295 26.088 26.088 0 0 1-7.802 30.964l-118.98 64.122a20.724 20.724 0 0 1-7.801 0 29.257 29.257 0 0 1-21.455-8.533c-6.583-7.315-63.39-67.78-121.905-67.78s-117.029 66.56-117.029 67.292a32.427 32.427 0 0 1-30.964 7.07L243.81 857.967a26.088 26.088 0 0 1-6.34-29.014 163.352 163.352 0 0 0 13.166-58.758 151.893 151.893 0 0 0-151.65-151.893H94.11c-1.706 0-7.314-6.095-9.996-19.017A558.324 558.324 0 0 1 75.094 512a560.762 560.762 0 0 1 9.02-86.065 28.038 28.038 0 0 1 9.509-19.017h2.194a152.137 152.137 0 0 0 154.82-152.38 162.621 162.621 0 0 0-12.679-57.54 26.331 26.331 0 0 1 7.07-30.476l120.686-65.097a32.67 32.67 0 0 1 30.233 7.314c2.438 2.682 60.952 63.634 118.003 63.634s114.835-59.733 117.273-62.415a32.67 32.67 0 0 1 22.43-8.29 25.844 25.844 0 0 1 9.021 1.463l115.078 64.366a26.575 26.575 0 0 1 7.558 29.257 163.352 163.352 0 0 0-13.165 58.758 151.893 151.893 0 0 0 151.65 152.138c10.24 0 13.653 13.165 14.628 18.773A553.204 553.204 0 0 1 947.688 512a503.467 503.467 0 0 1-9.021 86.065z" fill="#ffffff" p-id="933"></path><path d="M512 318.903a195.048 195.048 0 0 0-9.752 388.145H512a195.048 195.048 0 0 0 0-388.145z m0 315.002A121.905 121.905 0 1 1 633.905 512 121.905 121.905 0 0 1 512 633.905z" fill="#ffffff" p-id="934"></path></svg>