<?xml version="1.0" standalone="no"?><!DOCTYPE svg PUBLIC "-//W3C//DTD SVG 1.1//EN" "http://www.w3.org/Graphics/SVG/1.1/DTD/svg11.dtd"><svg t="1628147681216" class="icon" viewBox="0 0 1024 1024" version="1.1" xmlns="http://www.w3.org/2000/svg" p-id="3567" xmlns:xlink="http://www.w3.org/1999/xlink" width="128" height="128"><defs><style type="text/css"></style></defs><path d="M508.805 122.88a44.863 44.863 0 0 0-17.613 3.604L145.49 274.596a43.049 43.049 0 0 0 0.614 79.749l345.703 141.599c10.895 4.505 23.142 4.505 33.997 0l345.702-141.599a43.049 43.049 0 0 0 0.696-79.708L526.5 126.484a44.851 44.851 0 0 0-17.736-3.604z m-0.04 62.874l299.171 128.204-299.13 122.553-299.173-122.553 299.131-128.204z m-386.13 310.968a30.72 30.72 0 0 1 40.468-15.81l357.99 156.753a30.72 30.72 0 1 1-24.658 56.28L138.445 537.19a30.72 30.72 0 0 1-15.81-40.468z" fill="#ffffff" p-id="3568"></path><path d="M496.558 638.157l357.99-156.795a30.72 30.72 0 1 1 24.617 56.279l-357.99 156.795a30.72 30.72 0 1 1-24.617-56.28z m-334.684 7.782l357.99 156.754a30.72 30.72 0 1 1-24.658 56.28l-357.99-156.755a30.72 30.72 0 0 1 24.658-56.279z" fill="#ffffff" p-id="3569"></path><path d="M878.51 702.26L520.52 859.012a30.72 30.72 0 0 1-24.617-56.279l357.99-156.754a30.72 30.72 0 0 1 24.617 56.28z" fill="#ffffff" p-id="3570"></path></svg>